<svg xmlns="http://www.w3.org/2000/svg" viewBox="0 0 620 620" role="img" aria-label="Grelha de posicionamento depois: primeiro lugar em quase toda a área"><title>Grelha de posicionamento depois: primeiro lugar em quase toda a área</title><rect width="620" height="620" fill="#EDF2ED"/><rect x="301" y="124" width="120" height="143" rx="10" fill="#E3EAE4"/><rect x="19" y="44" width="175" height="128" rx="10" fill="#E3EAE4"/><rect x="66" y="344" width="144" height="67" rx="10" fill="#E3EAE4"/><rect x="489" y="189" width="74" height="71" rx="10" fill="#E3EAE4"/><rect x="414" y="398" width="78" height="90" rx="10" fill="#E3EAE4"/><rect x="62" y="534" width="124" height="67" rx="10" fill="#E3EAE4"/><rect x="549" y="96" width="98" height="140" rx="10" fill="#E3EAE4"/><rect x="33" y="560" width="144" height="110" rx="10" fill="#E3EAE4"/><rect x="20" y="196" width="75" height="131" rx="10" fill="#E3EAE4"/><path d="M0 210 H620" stroke="#FFFFFF" stroke-width="14"/><path d="M0 446 H620" stroke="#FFFFFF" stroke-width="10"/><path d="M173 0 V620" stroke="#FFFFFF" stroke-width="12"/><path d="M409 0 V620" stroke="#FFFFFF" stroke-width="9"/><path d="M0 558 Q248 483 620 589" stroke="#CFE3F5" stroke-width="22" fill="none"/><g font-family="Roboto,Arial,sans-serif" font-weight="700" text-anchor="middle"><circle cx="46.0" cy="46.0" r="21" fill="#22C55E" stroke="#fff" stroke-width="2.5"/><text x="46.0" y="51.2" font-size="15" fill="#0E7A38">2</text><circle cx="112.0" cy="46.0" r="21" fill="#22C55E" stroke="#fff" stroke-width="2.5"/><text x="112.0" y="51.2" font-size="15" fill="#0E7A38">1</text><circle cx="178.0" cy="46.0" r="21" fill="#22C55E" stroke="#fff" stroke-width="2.5"/><text x="178.0" y="51.2" font-size="15" fill="#0E7A38">1</text><circle cx="244.0" cy="46.0" r="21" fill="#22C55E" stroke="#fff" stroke-width="2.5"/><text x="244.0" y="51.2" font-size="15" fill="#0E7A38">1</text><circle cx="310.0" cy="46.0" r="21" fill="#22C55E" stroke="#fff" stroke-width="2.5"/><text x="310.0" y="51.2" font-size="15" fill="#0E7A38">1</text><circle cx="376.0" cy="46.0" r="21" fill="#22C55E" stroke="#fff" stroke-width="2.5"/><text x="376.0" y="51.2" font-size="15" fill="#0E7A38">1</text><circle cx="442.0" cy="46.0" r="21" fill="#22C55E" stroke="#fff" stroke-width="2.5"/><text x="442.0" y="51.2" font-size="15" fill="#0E7A38">1</text><circle cx="508.0" cy="46.0" r="21" fill="#22C55E" stroke="#fff" stroke-width="2.5"/><text x="508.0" y="51.2" font-size="15" fill="#0E7A38">1</text><circle cx="574.0" cy="46.0" r="21" fill="#22C55E" stroke="#fff" stroke-width="2.5"/><text x="574.0" y="51.2" font-size="15" fill="#0E7A38">2</text><circle cx="46.0" cy="112.0" r="21" fill="#22C55E" stroke="#fff" stroke-width="2.5"/><text x="46.0" y="117.2" font-size="15" fill="#0E7A38">1</text><circle cx="112.0" cy="112.0" r="21" fill="#22C55E" stroke="#fff" stroke-width="2.5"/><text x="112.0" y="117.2" font-size="15" fill="#0E7A38">1</text><circle cx="178.0" cy="112.0" r="21" fill="#22C55E" stroke="#fff" stroke-width="2.5"/><text x="178.0" y="117.2" font-size="15" fill="#0E7A38">1</text><circle cx="244.0" cy="112.0" r="21" fill="#22C55E" stroke="#fff" stroke-width="2.5"/><text x="244.0" y="117.2" font-size="15" fill="#0E7A38">1</text><circle cx="310.0" cy="112.0" r="21" fill="#22C55E" stroke="#fff" stroke-width="2.5"/><text x="310.0" y="117.2" font-size="15" fill="#0E7A38">1</text><circle cx="376.0" cy="112.0" r="21" fill="#22C55E" stroke="#fff" stroke-width="2.5"/><text x="376.0" y="117.2" font-size="15" fill="#0E7A38">1</text><circle cx="442.0" cy="112.0" r="21" fill="#22C55E" stroke="#fff" stroke-width="2.5"/><text x="442.0" y="117.2" font-size="15" fill="#0E7A38">1</text><circle cx="508.0" cy="112.0" r="21" fill="#22C55E" stroke="#fff" stroke-width="2.5"/><text x="508.0" y="117.2" font-size="15" fill="#0E7A38">1</text><circle cx="574.0" cy="112.0" r="21" fill="#22C55E" stroke="#fff" stroke-width="2.5"/><text x="574.0" y="117.2" font-size="15" fill="#0E7A38">1</text><circle cx="46.0" cy="178.0" r="21" fill="#22C55E" stroke="#fff" stroke-width="2.5"/><text x="46.0" y="183.2" font-size="15" fill="#0E7A38">1</text><circle cx="112.0" cy="178.0" r="21" fill="#22C55E" stroke="#fff" stroke-width="2.5"/><text x="112.0" y="183.2" font-size="15" fill="#0E7A38">1</text><circle cx="178.0" cy="178.0" r="21" fill="#22C55E" stroke="#fff" stroke-width="2.5"/><text x="178.0" y="183.2" font-size="15" fill="#0E7A38">1</text><circle cx="244.0" cy="178.0" r="21" fill="#22C55E" stroke="#fff" stroke-width="2.5"/><text x="244.0" y="183.2" font-size="15" fill="#0E7A38">1</text><circle cx="310.0" cy="178.0" r="21" fill="#22C55E" stroke="#fff" stroke-width="2.5"/><text x="310.0" y="183.2" font-size="15" fill="#0E7A38">1</text><circle cx="376.0" cy="178.0" r="21" fill="#22C55E" stroke="#fff" stroke-width="2.5"/><text x="376.0" y="183.2" font-size="15" fill="#0E7A38">1</text><circle cx="442.0" cy="178.0" r="21" fill="#22C55E" stroke="#fff" stroke-width="2.5"/><text x="442.0" y="183.2" font-size="15" fill="#0E7A38">1</text><circle cx="508.0" cy="178.0" r="21" fill="#22C55E" stroke="#fff" stroke-width="2.5"/><text x="508.0" y="183.2" font-size="15" fill="#0E7A38">1</text><circle cx="574.0" cy="178.0" r="21" fill="#22C55E" stroke="#fff" stroke-width="2.5"/><text x="574.0" y="183.2" font-size="15" fill="#0E7A38">1</text><circle cx="46.0" cy="244.0" r="21" fill="#22C55E" stroke="#fff" stroke-width="2.5"/><text x="46.0" y="249.2" font-size="15" fill="#0E7A38">1</text><circle cx="112.0" cy="244.0" r="21" fill="#22C55E" stroke="#fff" stroke-width="2.5"/><text x="112.0" y="249.2" font-size="15" fill="#0E7A38">1</text><circle cx="178.0" cy="244.0" r="21" fill="#22C55E" stroke="#fff" stroke-width="2.5"/><text x="178.0" y="249.2" font-size="15" fill="#0E7A38">1</text><circle cx="244.0" cy="244.0" r="21" fill="#22C55E" stroke="#fff" stroke-width="2.5"/><text x="244.0" y="249.2" font-size="15" fill="#0E7A38">1</text><circle cx="310.0" cy="244.0" r="21" fill="#22C55E" stroke="#fff" stroke-width="2.5"/><text x="310.0" y="249.2" font-size="15" fill="#0E7A38">1</text><circle cx="376.0" cy="244.0" r="21" fill="#22C55E" stroke="#fff" stroke-width="2.5"/><text x="376.0" y="249.2" font-size="15" fill="#0E7A38">1</text><circle cx="442.0" cy="244.0" r="21" fill="#22C55E" stroke="#fff" stroke-width="2.5"/><text x="442.0" y="249.2" font-size="15" fill="#0E7A38">1</text><circle cx="508.0" cy="244.0" r="21" fill="#22C55E" stroke="#fff" stroke-width="2.5"/><text x="508.0" y="249.2" font-size="15" fill="#0E7A38">1</text><circle cx="574.0" cy="244.0" r="21" fill="#22C55E" stroke="#fff" stroke-width="2.5"/><text x="574.0" y="249.2" font-size="15" fill="#0E7A38">1</text><circle cx="46.0" cy="310.0" r="21" fill="#22C55E" stroke="#fff" stroke-width="2.5"/><text x="46.0" y="315.2" font-size="15" fill="#0E7A38">1</text><circle cx="112.0" cy="310.0" r="21" fill="#22C55E" stroke="#fff" stroke-width="2.5"/><text x="112.0" y="315.2" font-size="15" fill="#0E7A38">1</text><circle cx="178.0" cy="310.0" r="21" fill="#22C55E" stroke="#fff" stroke-width="2.5"/><text x="178.0" y="315.2" font-size="15" fill="#0E7A38">1</text><circle cx="244.0" cy="310.0" r="21" fill="#22C55E" stroke="#fff" stroke-width="2.5"/><text x="244.0" y="315.2" font-size="15" fill="#0E7A38">1</text><circle cx="310.0" cy="310.0" r="21" fill="#22C55E" stroke="#fff" stroke-width="2.5"/><text x="310.0" y="315.2" font-size="15" fill="#0E7A38">1</text><circle cx="376.0" cy="310.0" r="21" fill="#22C55E" stroke="#fff" stroke-width="2.5"/><text x="376.0" y="315.2" font-size="15" fill="#0E7A38">1</text><circle cx="442.0" cy="310.0" r="21" fill="#22C55E" stroke="#fff" stroke-width="2.5"/><text x="442.0" y="315.2" font-size="15" fill="#0E7A38">1</text><circle cx="508.0" cy="310.0" r="21" fill="#22C55E" stroke="#fff" stroke-width="2.5"/><text x="508.0" y="315.2" font-size="15" fill="#0E7A38">1</text><circle cx="574.0" cy="310.0" r="21" fill="#22C55E" stroke="#fff" stroke-width="2.5"/><text x="574.0" y="315.2" font-size="15" fill="#0E7A38">1</text><circle cx="46.0" cy="376.0" r="21" fill="#22C55E" stroke="#fff" stroke-width="2.5"/><text x="46.0" y="381.2" font-size="15" fill="#0E7A38">1</text><circle cx="112.0" cy="376.0" r="21" fill="#22C55E" stroke="#fff" stroke-width="2.5"/><text x="112.0" y="381.2" font-size="15" fill="#0E7A38">1</text><circle cx="178.0" cy="376.0" r="21" fill="#22C55E" stroke="#fff" stroke-width="2.5"/><text x="178.0" y="381.2" font-size="15" fill="#0E7A38">1</text><circle cx="244.0" cy="376.0" r="21" fill="#22C55E" stroke="#fff" stroke-width="2.5"/><text x="244.0" y="381.2" font-size="15" fill="#0E7A38">1</text><circle cx="310.0" cy="376.0" r="21" fill="#22C55E" stroke="#fff" stroke-width="2.5"/><text x="310.0" y="381.2" font-size="15" fill="#0E7A38">1</text><circle cx="376.0" cy="376.0" r="21" fill="#22C55E" stroke="#fff" stroke-width="2.5"/><text x="376.0" y="381.2" font-size="15" fill="#0E7A38">1</text><circle cx="442.0" cy="376.0" r="21" fill="#22C55E" stroke="#fff" stroke-width="2.5"/><text x="442.0" y="381.2" font-size="15" fill="#0E7A38">1</text><circle cx="508.0" cy="376.0" r="21" fill="#22C55E" stroke="#fff" stroke-width="2.5"/><text x="508.0" y="381.2" font-size="15" fill="#0E7A38">1</text><circle cx="574.0" cy="376.0" r="21" fill="#22C55E" stroke="#fff" stroke-width="2.5"/><text x="574.0" y="381.2" font-size="15" fill="#0E7A38">1</text><circle cx="46.0" cy="442.0" r="21" fill="#22C55E" stroke="#fff" stroke-width="2.5"/><text x="46.0" y="447.2" font-size="15" fill="#0E7A38">1</text><circle cx="112.0" cy="442.0" r="21" fill="#22C55E" stroke="#fff" stroke-width="2.5"/><text x="112.0" y="447.2" font-size="15" fill="#0E7A38">1</text><circle cx="178.0" cy="442.0" r="21" fill="#22C55E" stroke="#fff" stroke-width="2.5"/><text x="178.0" y="447.2" font-size="15" fill="#0E7A38">1</text><circle cx="244.0" cy="442.0" r="21" fill="#22C55E" stroke="#fff" stroke-width="2.5"/><text x="244.0" y="447.2" font-size="15" fill="#0E7A38">1</text><circle cx="310.0" cy="442.0" r="21" fill="#22C55E" stroke="#fff" stroke-width="2.5"/><text x="310.0" y="447.2" font-size="15" fill="#0E7A38">1</text><circle cx="376.0" cy="442.0" r="21" fill="#22C55E" stroke="#fff" stroke-width="2.5"/><text x="376.0" y="447.2" font-size="15" fill="#0E7A38">1</text><circle cx="442.0" cy="442.0" r="21" fill="#22C55E" stroke="#fff" stroke-width="2.5"/><text x="442.0" y="447.2" font-size="15" fill="#0E7A38">1</text><circle cx="508.0" cy="442.0" r="21" fill="#22C55E" stroke="#fff" stroke-width="2.5"/><text x="508.0" y="447.2" font-size="15" fill="#0E7A38">1</text><circle cx="574.0" cy="442.0" r="21" fill="#22C55E" stroke="#fff" stroke-width="2.5"/><text x="574.0" y="447.2" font-size="15" fill="#0E7A38">1</text><circle cx="46.0" cy="508.0" r="21" fill="#22C55E" stroke="#fff" stroke-width="2.5"/><text x="46.0" y="513.2" font-size="15" fill="#0E7A38">1</text><circle cx="112.0" cy="508.0" r="21" fill="#22C55E" stroke="#fff" stroke-width="2.5"/><text x="112.0" y="513.2" font-size="15" fill="#0E7A38">1</text><circle cx="178.0" cy="508.0" r="21" fill="#22C55E" stroke="#fff" stroke-width="2.5"/><text x="178.0" y="513.2" font-size="15" fill="#0E7A38">1</text><circle cx="244.0" cy="508.0" r="21" fill="#22C55E" stroke="#fff" stroke-width="2.5"/><text x="244.0" y="513.2" font-size="15" fill="#0E7A38">1</text><circle cx="310.0" cy="508.0" r="21" fill="#22C55E" stroke="#fff" stroke-width="2.5"/><text x="310.0" y="513.2" font-size="15" fill="#0E7A38">1</text><circle cx="376.0" cy="508.0" r="21" fill="#22C55E" stroke="#fff" stroke-width="2.5"/><text x="376.0" y="513.2" font-size="15" fill="#0E7A38">1</text><circle cx="442.0" cy="508.0" r="21" fill="#22C55E" stroke="#fff" stroke-width="2.5"/><text x="442.0" y="513.2" font-size="15" fill="#0E7A38">1</text><circle cx="508.0" cy="508.0" r="21" fill="#22C55E" stroke="#fff" stroke-width="2.5"/><text x="508.0" y="513.2" font-size="15" fill="#0E7A38">1</text><circle cx="574.0" cy="508.0" r="21" fill="#22C55E" stroke="#fff" stroke-width="2.5"/><text x="574.0" y="513.2" font-size="15" fill="#0E7A38">1</text><circle cx="46.0" cy="574.0" r="21" fill="#22C55E" stroke="#fff" stroke-width="2.5"/><text x="46.0" y="579.2" font-size="15" fill="#0E7A38">3</text><circle cx="112.0" cy="574.0" r="21" fill="#22C55E" stroke="#fff" stroke-width="2.5"/><text x="112.0" y="579.2" font-size="15" fill="#0E7A38">1</text><circle cx="178.0" cy="574.0" r="21" fill="#22C55E" stroke="#fff" stroke-width="2.5"/><text x="178.0" y="579.2" font-size="15" fill="#0E7A38">1</text><circle cx="244.0" cy="574.0" r="21" fill="#22C55E" stroke="#fff" stroke-width="2.5"/><text x="244.0" y="579.2" font-size="15" fill="#0E7A38">1</text><circle cx="310.0" cy="574.0" r="21" fill="#22C55E" stroke="#fff" stroke-width="2.5"/><text x="310.0" y="579.2" font-size="15" fill="#0E7A38">1</text><circle cx="376.0" cy="574.0" r="21" fill="#22C55E" stroke="#fff" stroke-width="2.5"/><text x="376.0" y="579.2" font-size="15" fill="#0E7A38">1</text><circle cx="442.0" cy="574.0" r="21" fill="#22C55E" stroke="#fff" stroke-width="2.5"/><text x="442.0" y="579.2" font-size="15" fill="#0E7A38">1</text><circle cx="508.0" cy="574.0" r="21" fill="#22C55E" stroke="#fff" stroke-width="2.5"/><text x="508.0" y="579.2" font-size="15" fill="#0E7A38">1</text><circle cx="574.0" cy="574.0" r="21" fill="#22C55E" stroke="#fff" stroke-width="2.5"/><text x="574.0" y="579.2" font-size="15" fill="#0E7A38">1</text></g></svg>